<svg xmlns="http://www.w3.org/2000/svg" viewBox="0 0 1000 1000"><defs><style>.cls-1,.cls-13,.cls-2{fill:none;stroke:#fff;stroke-miterlimit:10;}.cls-1{stroke-width:3px;}.cls-2{stroke-width:6px;}.cls-3{fill:#2b3256;}.cls-4{fill:#738bb3;}.cls-5{fill:#ebf3fb;}.cls-6{fill:#93abd2;}.cls-7{fill:#b4cbe4;}.cls-8{fill:#6c7cad;}.cls-9{fill:#7c8cbc;}.cls-10{fill:#acbcdc;}.cls-11{fill:#c4d4ea;}.cls-12{fill:#fff;}.cls-13{stroke-width:20px;}</style></defs><g id="Main-Logo-Borderless-Transparent"><path class="cls-1" d="M352.56,244.63l-7-12.16A310.39,310.39,0,0,0,232.47,345.54l12.16,7A296.32,296.32,0,0,1,352.56,244.63Z"/><path class="cls-1" d="M500,205.16v-14a307.46,307.46,0,0,0-154.46,41.35l7,12.16A293.43,293.43,0,0,1,500,205.16Z"/><path class="cls-1" d="M794.84,500h14a307.46,307.46,0,0,0-41.35-154.46l-12.16,7A293.43,293.43,0,0,1,794.84,500Z"/><path class="cls-1" d="M755.37,352.56l12.16-7A310.39,310.39,0,0,0,654.46,232.47l-7,12.16A296.32,296.32,0,0,1,755.37,352.56Z"/><path class="cls-1" d="M647.44,244.63l7-12.16A307.46,307.46,0,0,0,500,191.12v14A293.43,293.43,0,0,1,647.44,244.63Z"/><path class="cls-1" d="M244.63,352.56l-12.16-7A307.46,307.46,0,0,0,191.12,500h14A293.43,293.43,0,0,1,244.63,352.56Z"/><path class="cls-1" d="M794.84,500a293.43,293.43,0,0,1-39.47,147.44l12.16,7A307.46,307.46,0,0,0,808.88,500Z"/><path class="cls-1" d="M205.16,500h-14a307.46,307.46,0,0,0,41.35,154.46l12.16-7A293.43,293.43,0,0,1,205.16,500Z"/><path class="cls-1" d="M647.44,755.37l7,12.16A310.39,310.39,0,0,0,767.53,654.46l-12.16-7A296.32,296.32,0,0,1,647.44,755.37Z"/><path class="cls-1" d="M352.56,755.37l-7,12.16A307.46,307.46,0,0,0,500,808.88v-14A293.43,293.43,0,0,1,352.56,755.37Z"/><path class="cls-1" d="M244.63,647.44l-12.16,7A310.39,310.39,0,0,0,345.54,767.53l7-12.16A296.32,296.32,0,0,1,244.63,647.44Z"/><path class="cls-1" d="M500,794.84v14a307.46,307.46,0,0,0,154.46-41.35l-7-12.16A293.43,293.43,0,0,1,500,794.84Z"/><path class="cls-2" d="M310.53,390.61l-65.9-38.05A293.43,293.43,0,0,0,205.16,500h76.09A217.73,217.73,0,0,1,310.53,390.61Z"/><path class="cls-2" d="M281.25,500H205.16a293.43,293.43,0,0,0,39.47,147.44l65.9-38.05A217.73,217.73,0,0,1,281.25,500Z"/><path class="cls-2" d="M500,281.25V205.16a293.43,293.43,0,0,0-147.44,39.47l38.05,65.9A217.73,217.73,0,0,1,500,281.25Z"/><path class="cls-2" d="M609.39,310.53l38.05-65.9A293.43,293.43,0,0,0,500,205.16v76.09A217.73,217.73,0,0,1,609.39,310.53Z"/><path class="cls-2" d="M689.47,390.61l65.9-38.05A296.32,296.32,0,0,0,647.44,244.63l-38.05,65.9A219.87,219.87,0,0,1,689.47,390.61Z"/><path class="cls-2" d="M390.61,310.53l-38.05-65.9A296.32,296.32,0,0,0,244.63,352.56l65.9,38.05A219.87,219.87,0,0,1,390.61,310.53Z"/><path class="cls-2" d="M609.39,689.47l38.05,65.9A296.32,296.32,0,0,0,755.37,647.44l-65.9-38.05A219.87,219.87,0,0,1,609.39,689.47Z"/><path class="cls-2" d="M689.47,609.39l65.9,38.05A293.43,293.43,0,0,0,794.84,500H718.75A217.73,217.73,0,0,1,689.47,609.39Z"/><path class="cls-2" d="M689.47,390.61A217.73,217.73,0,0,1,718.75,500h76.09a293.43,293.43,0,0,0-39.47-147.44Z"/><path class="cls-2" d="M390.61,689.47l-38.05,65.9A293.43,293.43,0,0,0,500,794.84V718.75A217.73,217.73,0,0,1,390.61,689.47Z"/><path class="cls-2" d="M500,718.75v76.09a293.43,293.43,0,0,0,147.44-39.47l-38.05-65.9A217.73,217.73,0,0,1,500,718.75Z"/><path class="cls-2" d="M310.53,609.39l-65.9,38.05A296.32,296.32,0,0,0,352.56,755.37l38.05-65.9A219.87,219.87,0,0,1,310.53,609.39Z"/><g id="svgg"><path id="path0" class="cls-3" d="M342,397.22a2.69,2.69,0,0,1-.75,1.19c-.41.44-.64.9-.52,1s2-1.83,2-2.32c0-.15-.17-.28-.37-.28a.39.39,0,0,0-.38.39m-4.77,7.66a4.4,4.4,0,0,0-.7,1.49c-.13.53-.35,1-.49,1a4.77,4.77,0,0,0-1,1.68,4.47,4.47,0,0,1-1,1.69c-.16,0-.29.26-.29.57s-.16.56-.37.56-.38.34-.38.75-.15.75-.34.75-.47.55-.61,1.22a4.06,4.06,0,0,1-.5,1.41,8.12,8.12,0,0,0-1.55,3.16c0,.32-.17.59-.37.59s-.38.26-.38.57-.16.56-.35.56-.47.76-.61,1.69-.4,1.69-.58,1.69-.34.25-.34.56-.14.56-.31.56a5.74,5.74,0,0,0-1,2.26,6.48,6.48,0,0,1-1,2.25c-.16,0-.28.42-.28.94s-.16.93-.35.93-.45.68-.59,1.5-.41,1.51-.6,1.51-.34.41-.34.91a1.55,1.55,0,0,1-.36,1.14,4.61,4.61,0,0,0-.62,2.09c-.13,1-.39,1.86-.57,1.86s-.33.42-.33.94-.15.94-.33.94-.45.75-.58,1.68a4.25,4.25,0,0,1-.61,1.9,2.42,2.42,0,0,0-.35,1.51c0,.71-.15,1.29-.33,1.29s-.46.71-.62,1.59-.36,1.85-.45,2.16a16.74,16.74,0,0,0-.37,1.79,2.8,2.8,0,0,1-.53,1.43,3,3,0,0,0-.33,1.68c0,.82-.16,1.48-.34,1.48s-.47,1.27-.61,2.82a9.07,9.07,0,0,1-.6,3,3.49,3.49,0,0,0-.33,1.85,3.38,3.38,0,0,1-.34,1.86,18.54,18.54,0,0,0-.6,4.62,19.24,19.24,0,0,1-.7,4.93c-.6.75-.6,42.86,0,43.61a19.27,19.27,0,0,1,.7,4.94,18.73,18.73,0,0,0,.6,4.62,3.34,3.34,0,0,1,.34,1.85,3.44,3.44,0,0,0,.33,1.85,9.09,9.09,0,0,1,.6,3c.14,1.55.42,2.82.61,2.82s.34.64.34,1.43a3.78,3.78,0,0,0,.28,1.72c.25.25.49,1.22,1.47,5.95.11.56.36,1,.54,1s.34.58.34,1.29a2.42,2.42,0,0,0,.35,1.51,4.2,4.2,0,0,1,.61,1.9c.13.92.4,1.68.58,1.68s.33.42.33.94.15.94.33.94.44.83.57,1.86a4.51,4.51,0,0,0,.62,2.08,1.58,1.58,0,0,1,.36,1.14c0,.51.15.92.34.92s.46.68.6,1.5.41,1.5.59,1.5.35.42.35.94.12.94.28.94a6.44,6.44,0,0,1,1,2.25,5.51,5.51,0,0,0,1,2.25c.18,0,.33.34.33.75s.17.75.38.75.37.27.37.6a9.66,9.66,0,0,0,1.53,3.53,3.66,3.66,0,0,1,.52,1.41c.15.67.38,1.22.52,1.22s1.56,2.77,1.56,3.38a.38.38,0,0,0,.38.37c.2,0,.37.34.37.75s.15.75.33.75.43.3.54.66a20.23,20.23,0,0,0,2.18,3.85,3.33,3.33,0,0,1,.52,1.12,4,4,0,0,0,1,1.53,3.49,3.49,0,0,1,.91,1.55,4.88,4.88,0,0,0,.87,1.68,12,12,0,0,1,1.34,2.1c.4.77.86,1.4,1,1.4s.31.25.31.56.16.57.35.57.47.38.62.84a3.69,3.69,0,0,0,.91,1.41,3.77,3.77,0,0,1,.91,1.4c.14.47.42.85.61.85a.37.37,0,0,1,.35.4,1.9,1.9,0,0,0,.47.93c1,1.12,1.41,1.65,1.41,1.86a4.94,4.94,0,0,0,.94,1.23,4.11,4.11,0,0,1,.94,1.32,3.8,3.8,0,0,0,.94,1.24,3.76,3.76,0,0,1,.93,1.22,8.4,8.4,0,0,0,1.41,1.79,29.33,29.33,0,0,1,2.35,2.89,4.84,4.84,0,0,0,1.57,1.59,1.66,1.66,0,0,1,.89,1c.45,1.43,15.16,16.22,20.45,20.57.88.72,1.82,1.52,2.08,1.78a1.61,1.61,0,0,0,.71.47,7.78,7.78,0,0,1,1.59,1.31,6.29,6.29,0,0,0,1.65,1.32,3.87,3.87,0,0,1,1.24.93,4.09,4.09,0,0,0,1.17.94,1.92,1.92,0,0,1,.75.47c1.24,1.12,1.67,1.41,2,1.41.21,0,.39.13.39.29s.59.61,1.31,1,1.32.84,1.32,1,.38.41.84.55a3.81,3.81,0,0,1,1.41.91,3.54,3.54,0,0,0,1.4.91c.47.15.85.43.85.62s.25.35.56.35.57.14.57.32.62.63,1.39,1a11.65,11.65,0,0,1,2.1,1.34,5,5,0,0,0,1.68.87,3.47,3.47,0,0,1,1.56.91,3.93,3.93,0,0,0,1.52,1,3.31,3.31,0,0,1,1.13.52,16.24,16.24,0,0,0,3.47,2c.57.24,1,.56,1,.72s.34.3.75.3.75.17.75.37a.38.38,0,0,0,.38.38c.6,0,3.38,1.28,3.38,1.56s.55.37,1.22.52a3.52,3.52,0,0,1,1.4.52,11.54,11.54,0,0,0,3.27,1.53,5,5,0,0,1,2.36,1.17,7.3,7.3,0,0,0,2.25.94,6.33,6.33,0,0,1,2.26,1c0,.16.42.28.94.28s.93.16.93.35.68.45,1.51.59,1.5.41,1.5.6.41.34.91.34a1.59,1.59,0,0,1,1.15.36,4.64,4.64,0,0,0,2.08.62c1,.13,1.86.39,1.86.57s.42.33.94.33.94.16.94.37.39.38.86.38a2.06,2.06,0,0,1,1.25.38,6.14,6.14,0,0,0,2.33.62c1.07.12,1.94.35,1.94.51s.46.37,1,.49c4.73,1,5.7,1.22,5.95,1.47a3.78,3.78,0,0,0,1.72.28c.79,0,1.43.15,1.43.34s1.27.46,2.82.61a8.82,8.82,0,0,1,3,.6,3.44,3.44,0,0,0,1.85.33,3.47,3.47,0,0,1,1.85.33,18.48,18.48,0,0,0,4.62.61,20,20,0,0,1,4.94.69c.38.31,6.51.43,21.8.43s21.43-.12,21.81-.43a20,20,0,0,1,4.94-.69,18.48,18.48,0,0,0,4.62-.61,3.47,3.47,0,0,1,1.85-.33,3.44,3.44,0,0,0,1.85-.33,8.8,8.8,0,0,1,3-.6c1.56-.15,2.83-.42,2.83-.61s.64-.34,1.43-.34a3.78,3.78,0,0,0,1.72-.28c.25-.25,1.22-.49,5.95-1.47.56-.12,1-.34,1-.49s.87-.39,1.94-.51a6.14,6.14,0,0,0,2.33-.62,2.06,2.06,0,0,1,1.25-.38c.47,0,.86-.17.86-.38s.42-.37.94-.37.94-.15.94-.33.83-.44,1.86-.57a4.64,4.64,0,0,0,2.08-.62,1.59,1.59,0,0,1,1.15-.36c.5,0,.91-.15.91-.34s.68-.46,1.5-.6,1.5-.41,1.5-.59.43-.35.94-.35.94-.12.94-.28a6.33,6.33,0,0,1,2.26-1,5.51,5.51,0,0,0,2.24-1c0-.19.34-.33.76-.33s.75-.16.75-.35.67-.45,1.5-.59,1.5-.41,1.5-.6.25-.34.56-.34.56-.15.56-.33.6-.45,1.32-.58,1.31-.37,1.31-.52,2.76-1.57,3.38-1.57a.38.38,0,0,0,.38-.38c0-.2.33-.37.75-.37s.75-.14.75-.3.46-.48,1-.72a16.24,16.24,0,0,0,3.47-2,3.31,3.31,0,0,1,1.13-.52,3.93,3.93,0,0,0,1.52-1,3.47,3.47,0,0,1,1.56-.91,4.84,4.84,0,0,0,1.67-.87,12.16,12.16,0,0,1,2.11-1.34c.77-.4,1.39-.86,1.39-1a.37.37,0,0,1,.41-.32c.81,0,1.52-1,.87-1.28-.91-.35-3.71-.26-4.11.12a9.25,9.25,0,0,1-3,.55c-8.34.64-14.34,1.23-14.83,1.45a18,18,0,0,1-3.38.44c-2.56.17-12.06,1.07-16.71,1.58-1.62.17-2.84-.12-8.63-2-3.71-1.23-7.76-2.52-9-2.86s-2.59-.76-3-.93-1.68-.6-2.82-1-2.4-.78-2.81-1-2.19-.75-3.94-1.31-3.53-1.16-3.94-1.33-1.77-.61-3-1a18.13,18.13,0,0,1-2.62-.9,20.84,20.84,0,0,0-2.82-.94,14.59,14.59,0,0,1-2.8-1,1.87,1.87,0,0,0-1.05-.32,26,26,0,0,1-5.34-1.51c-.42-.18-2.84-1-5.39-1.86-5.12-1.68-6.7-2.4-7.61-3.44a2.39,2.39,0,0,0-.81-.69c-.23,0-4.59-3-7.78-5.28-1.13-.82-2.92-2.08-4-2.79a19.54,19.54,0,0,1-2.59-2.06,2.46,2.46,0,0,0-1-.75,27.72,27.72,0,0,1-5.22-3.62,4.37,4.37,0,0,0-1.2-.89c-.25,0-.94-.47-5.69-3.85a23.46,23.46,0,0,0-2.72-1.78,6.52,6.52,0,0,1-1.39-1c-2.17-1.76-6.2-4.86-7.56-5.8s-5.39-4-7.55-5.8a5.37,5.37,0,0,0-1.46-1,20.59,20.59,0,0,1-3.76-3,2.62,2.62,0,0,0-1.15-.74,3.1,3.1,0,0,1-1.28-.94,3.18,3.18,0,0,0-1.23-.94,5.06,5.06,0,0,1-1.53-1c-4.34-3.5-5.87-4.68-6.08-4.68a5.91,5.91,0,0,1-1.43-1c-3.33-2.69-5.85-4.61-7.37-5.6-.93-.61-2.56-1.84-3.62-2.72a12.89,12.89,0,0,0-2.2-1.61,6.18,6.18,0,0,1-1.51-1c-.68-.57-1.85-1.46-2.61-2a24,24,0,0,1-2.27-1.79,3.79,3.79,0,0,0-1.14-.84,6.29,6.29,0,0,1-1.47-1c-.67-.57-2.2-1.71-3.39-2.54s-2.72-2-3.38-2.53a5.74,5.74,0,0,0-1.49-1,5.68,5.68,0,0,1-1.45-1c-4.34-3.51-5.87-4.68-6.08-4.68a6.41,6.41,0,0,1-1.5-1c-.69-.57-2.44-2-3.89-3.09-3-2.34-2.79-2.92.91-2.46,1,.13,4.16.39,6.94.57s6,.45,7,.58,2,.1,2-.07c0-.4-24.6-24.53-25-24.53-.17,0-4.15-3.75-8.85-8.35S360.34,515.28,358,513c-3.26-3.09-4.34-4.36-4.49-5.25-.36-2.12-1.35-6.78-1.77-8.32-.62-2.3-1.1-4.27-1.66-6.94-.28-1.34-.71-3.11-.94-3.94s-.68-3.27-1-5.44-.71-4.87-.91-6-.55-3.66-.77-5.62a23.36,23.36,0,0,0-.75-4.22,6,6,0,0,1-.34-2.16A5.77,5.77,0,0,0,345,463c-.32-.57-.61-2.58-1.38-9.66a6,6,0,0,0-.55-2.23,3.16,3.16,0,0,1-.34-1.6,5.22,5.22,0,0,0-.33-1.89c-.19-.36-.63-1.42-1-2.35-.53-1.41-1.72-4.16-3.66-8.48-.41-.92-.21-4.05.59-9.34.59-3.9.28-11-.56-12.79-.41-.86-.23-8.14.23-9.45.33-.94-.11-1.1-.81-.3"/><path id="path1" class="cls-4" d="M345.1,393.14a13.86,13.86,0,0,0-1,5c-.08,1-.32,2.81-.53,3.94s-.57,3-.78,4.13-.66,3.76-1,5.82-.75,4.68-1,5.82-.62,3.83-.91,6-.73,4.87-1,6c-.88,4.15-.69,5.86,1.11,9.75,1.94,4.21,1.95,4.23,3.41,8,.63,1.61,2,4.82,3,7.13s2.34,5.23,2.86,6.46c1,2.38,2.92,6.74,4.64,10.51.57,1.24,1.45,3.27,2,4.51a133.32,133.32,0,0,0,9.29,18.57c.6.93,1.39,2.28,1.76,3a10.16,10.16,0,0,0,1.12,1.8,11.4,11.4,0,0,1,1.24,2.23,9,9,0,0,0,1.05,2,21.47,21.47,0,0,1,1.68,2.26,58.12,58.12,0,0,0,4.76,6.44c1.14,1.37,2.49,3.11,3,3.86a51.36,51.36,0,0,0,4.21,5.51,32.47,32.47,0,0,1,2.17,2.74c.93,1.37,2.48,3.48,3.59,4.91.32.41,1.12,1.48,1.78,2.37s1.79,2.35,2.51,3.23,1.65,2.1,2.07,2.7c1.43,2.06,2.85,3.27,6.75,5.77,1.45.92,2.71,1.76,2.82,1.87a27.13,27.13,0,0,0,4.22,2.67c.57.25,1,.6,1,.78a.33.33,0,0,0,.34.31c.83,0,11.13,7.26,11.36,8,.14.45.59,1.66,1,2.69,2.07,5.18,3.17,8.07,3.8,9.94.37,1.14,1.1,3,1.6,4.13a26.42,26.42,0,0,1,1.17,3.1c.21.81.88,1.35,3.16,2.52,1.6.82,3.92,2.09,5.16,2.82s3.52,2,5.07,2.84,4,2.21,5.44,3,3.64,2.07,4.88,2.75,3.43,1.92,4.88,2.76,3.81,2.14,5.25,2.9a21,21,0,0,1,2.82,1.65c.15.21,8.4,4.75,9.49,5.21a24.2,24.2,0,0,1,2.17,1.88c1,1,3.43,3.14,5.33,4.85,8.82,7.92,10.42,9.36,13.41,12.12,5.33,4.94,6.9,6.23,7.88,6.51,2.9.84,3.79,1.07,6,1.57,1.35.31,3.12.73,4,.94s2.59.62,3.94.9,3.79.88,5.44,1.32,4,1,5.25,1.32a48.38,48.38,0,0,1,5.45,1.44,20,20,0,0,0,2.81.58,36.17,36.17,0,0,1,3.75.78c.83.24,2.52.67,3.76,1,2.14.48,2.92.69,6.38,1.7,2.22.65,3.43.74,16,1.15,12.77.42,26.13,1,31.53,1.27l3.56.21,18.31-9.19c10.07-5.05,18.69-9.29,19.15-9.43.86-.26,2.89-2,2.89-2.46a4.7,4.7,0,0,1,1-1.36,60.65,60.65,0,0,0,4.19-5.17c.63-.82,1.38-1.75,1.66-2.06s1.15-1.49,1.92-2.63a23,23,0,0,1,1.65-2.25,79.69,79.69,0,0,0,4.56-6.94c.89-1.45,1.72-2.72,1.84-2.82a9.6,9.6,0,0,0,1-1.69,16.27,16.27,0,0,1,1.59-2.56,3.85,3.85,0,0,0,.86-1.59c0-.3.13-.54.28-.54s.62-.72,1-1.59c1-2.27,1.09-2.43.51-1.72a9.22,9.22,0,0,1-2,1.47c-4.26,2.39-4.92,2.79-5.38,3.23a1.62,1.62,0,0,1-.9.49,5,5,0,0,0-1.64.94,8.14,8.14,0,0,1-1.39.93c-.16,0-4,2.24-5.14,3a46.89,46.89,0,0,1-6,3.37c-.22,0-.4.14-.4.3s-.72.68-1.6,1.13-2.66,1.5-4,2.33a29.51,29.51,0,0,1-2.56,1.5,7.65,7.65,0,0,0-1.41.94,7.25,7.25,0,0,1-1.45.94,34.09,34.09,0,0,0-3.27,1.87c-1.68,1-3.15,1.88-3.26,1.88a7,7,0,0,0-1.38.84,38.1,38.1,0,0,1-4.93,2.94c-1.27.66-1.73,1.26-2.94,3.85-4.86,10.39-4,9.41-8.7,9.87a12.89,12.89,0,0,0-2.44.42A44.34,44.34,0,0,1,600,632c-2.27.27-5.23.66-6.57.88s-3.28.48-4.32.58a13.2,13.2,0,0,0-2.43.43,42,42,0,0,1-4.7.73c-2.27.27-5.14.66-6.38.86-8.42,1.36-10.83,1.33-13.88-.17a9.2,9.2,0,0,0-2.65-.93A1.92,1.92,0,0,1,558,634a24.31,24.31,0,0,0-3.88-1.53c-1.94-.65-3.8-1.34-4.13-1.53a63.39,63.39,0,0,0-6.79-2.46,20.73,20.73,0,0,1-2.34-.91,3.07,3.07,0,0,0-1.13-.35,5.92,5.92,0,0,1-1.79-.7,12.1,12.1,0,0,0-2.62-1,7.6,7.6,0,0,1-2.07-.74,31.41,31.41,0,0,0-3.94-1.5,21.1,21.1,0,0,1-3.55-1.38,1.76,1.76,0,0,0-1-.34,3.57,3.57,0,0,1-1.34-.33c-.88-.46-3.68-1.53-7.4-2.84-8.51-3-11.8-4.49-16.35-7.42-1.74-1.13-3.76-2.35-4.49-2.72a8.55,8.55,0,0,1-1.5-.91,5.53,5.53,0,0,0-.93-.67c-6.33-3.74-7.71-4.59-13.22-8.13a25.31,25.31,0,0,0-2.94-1.74,7.25,7.25,0,0,1-1.45-.94,6.19,6.19,0,0,0-1.49-.94A19.87,19.87,0,0,1,470,592.7a8.33,8.33,0,0,0-1.5-.9c-1.48-.75-2.93-1.89-6.2-4.89-1.23-1.13-3.47-3.12-5-4.4l-5.75-5c-1.67-1.45-3.87-3.43-4.89-4.41a13.19,13.19,0,0,0-2.1-1.79A20.94,20.94,0,0,1,441.8,569c-1.38-1.29-3-2.73-3.65-3.19-1.06-.79-2.23-2.37-7.77-10.51a22.39,22.39,0,0,0-3.49-4.12,27.19,27.19,0,0,1-2.54-2.16,37.39,37.39,0,0,0-3.14-2.63,95.76,95.76,0,0,1-10.89-9.24c-3.11-3.14-8.53-9.14-15.22-16.86-1.44-1.66-3.68-4.12-5-5.45a36.13,36.13,0,0,1-2.62-2.94,36.71,36.71,0,0,0-2.55-3c-4.47-4.86-6.57-7.62-6.57-8.61a10.75,10.75,0,0,0-.89-2.34c-.49-1-1.32-2.9-1.84-4.13s-1.4-3.23-1.93-4.42a15.54,15.54,0,0,1-1-2.52,9.25,9.25,0,0,0-.94-2,8.13,8.13,0,0,1-.94-2.16,10.3,10.3,0,0,0-.9-2.37c-2.12-4.45-2.85-6.11-2.85-6.48a7.33,7.33,0,0,0-.74-1.84c-.4-.79-1.76-3.89-3-6.88s-2.62-6.14-3-7a9.75,9.75,0,0,1-.74-1.83,9.55,9.55,0,0,0-.72-1.84c-.64-1.37-2.62-5.85-4-9.1a8.12,8.12,0,0,1-.51-2.66,4,4,0,0,0-.28-1.76,18.15,18.15,0,0,1-.72-3.91c-.73-6-.93-7.35-1.17-7.94a37.22,37.22,0,0,1-.7-3.94c-.26-1.86-.66-4.4-.88-5.63s-.56-3.61-.75-5.26-.46-3.42-.58-3.94c-.34-1.38-.93-4.82-1.17-6.75a6.88,6.88,0,0,0-.5-2.07,18.35,18.35,0,0,1-.56-4c-.19-2.57-.46-3.9-.9-4.45l-.64-.78-.43.88"/><path id="path2" class="cls-5" d="M481.82,312.67a12.48,12.48,0,0,0-3.38.44,58.68,58.68,0,0,1-8.93.91c-.36,0-.66.16-.66.33s-.75.29-1.66.29a3.54,3.54,0,0,0-1.87.32,8.6,8.6,0,0,1-2.92.57,9.65,9.65,0,0,0-3.09.62,3.27,3.27,0,0,1-1.73.37,3.39,3.39,0,0,0-1.64.28c-.25.24-1.22.48-5.95,1.46-.57.12-1,.33-1,.47a11.7,11.7,0,0,1-3.19,1,10.85,10.85,0,0,0-3.19,1c0,.16-.42.29-.94.29s-.94.15-.94.33-.84.43-1.86.57a4.67,4.67,0,0,0-2.08.61,1.59,1.59,0,0,1-1.15.37c-.5,0-.91.17-.91.37s-.3.38-.66.39a7.77,7.77,0,0,0-2.15.72,3.88,3.88,0,0,1-1.78.53c-.16-.1-.29-.05-.29.12a5.94,5.94,0,0,1-2.26,1,7,7,0,0,0-2.25.94c0,.13-.54.46-1.22.73-3.57,1.46-4.23,1.75-4.41,2a3.92,3.92,0,0,1-2,.69.69.69,0,0,0-.56.3,9.53,9.53,0,0,1-3.38,1.61.4.4,0,0,0-.42.37c0,.21-.33.38-.75.38s-.75.15-.75.33-.29.43-.65.54a19.63,19.63,0,0,0-3.85,2.18,3.52,3.52,0,0,1-1.13.52,3.9,3.9,0,0,0-1.54,1,2.18,2.18,0,0,1-.88.69c-.69,0-2.8,1.25-2.62,1.55s-.13.33-.54.33a3.9,3.9,0,0,0-1.86.94,4.33,4.33,0,0,1-1.53.94.38.38,0,0,0-.41.35c0,.19-.38.47-.85.61a3.86,3.86,0,0,0-1.45,1,2.3,2.3,0,0,1-.83.69,33.16,33.16,0,0,0-4,2.63,24,24,0,0,1-3.28,2.33,3.17,3.17,0,0,0-1,.93,2.21,2.21,0,0,1-1.2.87,1,1,0,0,0-.78.43c-.16.27-.1.33.15.17.53-.32,1,1.41.59,2.1a9.55,9.55,0,0,0-.6,2.37c-1,6.45-1.31,8.31-1.52,8.82a12.41,12.41,0,0,0-.42,2.25c-.23,2-1.23,8.36-1.73,11.07-.19,1-.61,3.39-.93,5.25s-.75,4.39-1,5.63c-1,5.61-1,5.63,1,11.87a23.15,23.15,0,0,1,.91,3.48,3.24,3.24,0,0,0,.35,1.26,21.27,21.27,0,0,1,1,2.91c1.07,3.81,2.47,8.22,2.83,8.91a3.49,3.49,0,0,1,.34,1.31,20.11,20.11,0,0,0,.94,3.29,18.27,18.27,0,0,1,.93,3.29,3.37,3.37,0,0,0,.35,1.31,21.63,21.63,0,0,1,.94,2.72l1,3.56a9.69,9.69,0,0,0,1.52,2.82c.59.72,1.53,1.87,2.08,2.56s1.73,2.06,2.61,3a9,9,0,0,1,1.59,2.15,5.5,5.5,0,0,0,1.32,1.63,5.4,5.4,0,0,1,1.31,1.63,24.18,24.18,0,0,0,2.82,3.45,24.13,24.13,0,0,1,2.81,3.44,5.55,5.55,0,0,0,1.31,1.61,5.62,5.62,0,0,1,1.32,1.6,27.31,27.31,0,0,0,2.81,3.58c1.55,1.8,3.5,4.11,4.33,5.14,2.87,3.54,6.71,8.26,8.25,10.14s3.15,3.89,5.44,6.81c.62.79,1.76,2.13,2.53,3a7.26,7.26,0,0,1,1.41,1.9,5.4,5.4,0,0,0,1.31,1.63,5.61,5.61,0,0,1,1.32,1.61,17.06,17.06,0,0,0,2.16,2.93c1.18,1.42,2.71,3.3,3.38,4.18s2.11,2.67,3.19,4,2.16,2.72,2.39,3.12a13,13,0,0,0,1.59,1.95,5.37,5.37,0,0,1,1.17,1.49,12.45,12.45,0,0,0,1.93,2.87,25.23,25.23,0,0,1,1.5,2.57c1.92,3.61,3.24,5.91,6.72,11.69.81,1.35,1.81,3.13,2.22,4a18.11,18.11,0,0,0,1.44,2.44,17.7,17.7,0,0,1,1.36,2.23c.36.72,1.31,2.41,2.11,3.75s1.9,3.27,2.45,4.3c1.76,3.25,2.47,3.92,8.42,7.92,3.2,2.16,6.84,4.67,8.07,5.58a18,18,0,0,0,2.55,1.69,15,15,0,0,1,2.9,1.91c.18.2,3.8,2.57,4.83,3.17s4.1,1.25,11.12,2.26c2.06.29,4.76.72,6,.94,3,.53,9.66,1.48,12,1.72a11.53,11.53,0,0,1,2.63.53c.78.35,1.24.42,7.51,1.15a31.86,31.86,0,0,1,4.5.75,11.11,11.11,0,0,0,2.25.5c.83.1,2,.3,2.68.43,1,.21,1.4.05,2.68-1.1a8.18,8.18,0,0,1,1.76-1.35c.14,0,2.74-2.28,5.77-5.06,5.32-4.89,8.32-7.58,15.07-13.54,1.76-1.54,4.3-3.84,5.64-5.11,2.62-2.45,4.12-3.32,4.12-2.37,0,.51-.6,1.88-3.61,8.25-2.13,4.49-2,5.21,1.36,6.33,4.91,1.65,10,3.47,10.4,3.73.24.15,2.1.79,4.13,1.42a41,41,0,0,1,5,1.83,11,11,0,0,0,2.72,1,3.48,3.48,0,0,1,1.62.6,1.26,1.26,0,0,0,.94.33,3.55,3.55,0,0,1,1.39.34c.57.29,2.33,1,4.78,1.91.41.15,1.68.57,2.81.93s2.57.87,3.19,1.14c5.09,2.24,6,2.3,10.14.68l2.25-.87,2.25-.87c.82-.32,2.43-.91,3.56-1.32s3.25-1.18,4.7-1.73,3.38-1.26,4.31-1.57a69.08,69.08,0,0,0,12.39-6.54c.93-.61,2.28-1.4,3-1.76s1.82-1,2.44-1.41a40.7,40.7,0,0,1,4.12-2.49,8.62,8.62,0,0,0,1.69-1.08,8.3,8.3,0,0,1,1.69-1.08c.82-.45,2.17-1.23,3-1.74s2.26-1.36,3.19-1.89c5.47-3.09,5.13-2.61,5.43-7.64a27.14,27.14,0,0,1,.58-4.72,11.89,11.89,0,0,0,.52-2.63c.11-1,.46-4,.79-6.57s.68-5.7.78-6.94a13.5,13.5,0,0,1,.52-3,12.8,12.8,0,0,0,.56-2.82c.75-7.13,1.21-10.76,1.42-11.26a13.89,13.89,0,0,0,.44-2.81c.61-6.94,1.08-11,1.36-11.64s.49-2,1-7.13a8.27,8.27,0,0,1,.57-2.68c.43-.53,0-7.94-.48-8.23a3.47,3.47,0,0,1-.32-1.85,3.42,3.42,0,0,0-.33-1.84,8.13,8.13,0,0,1-.58-2.83,7.69,7.69,0,0,0-.62-2.85,2,2,0,0,1-.35-1.32c0-.61-.17-1.1-.38-1.1a.39.39,0,0,1-.37-.4c0-.22.19-.28.43-.13s.33.1.17-.16a1,1,0,0,0-.72-.44c-.25,0-.67-.55-.94-1.22-.44-1.1-1.16-2.78-3.07-7.22-1.11-2.58-3.27-7.72-5-12-.5-1.2-1.83-4.35-3.45-8.16-.55-1.29-1.39-3.21-1.88-4.26a16.45,16.45,0,0,1-.88-2.17,14.71,14.71,0,0,0-.78-2c-.43-1-1.18-2.71-1.66-3.85s-1.31-3-1.84-4.23a14.72,14.72,0,0,1-1-2.62,2.71,2.71,0,0,0-.56-1.19,2.73,2.73,0,0,1-.55-1.26,10.09,10.09,0,0,0-.95-2.43,4.44,4.44,0,0,1-.71-3.06c.14-.63.12-1,0-.88s-1.09-.94-2.14-3.09a6.29,6.29,0,0,0-1.12-1.55,2,2,0,0,1-.67-1,4.28,4.28,0,0,0-.94-1.46,5.29,5.29,0,0,1-.94-1.35,3,3,0,0,0-.82-1c-.45-.42-.69-.76-.53-.76s.06-.24-.21-.52a16.8,16.8,0,0,1-1.25-1.57,15.79,15.79,0,0,0-1.15-1.44,12,12,0,0,1-1.1-1.61c-.39-.66-.84-1.12-1-1s-.31,0-.31-.18a1.64,1.64,0,0,0-.47-.87,25.81,25.81,0,0,1-1.63-2.08c-.64-.88-1.27-1.48-1.4-1.35s-.25.06-.25-.18a2.58,2.58,0,0,0-.82-1.19c-.45-.42-.7-.76-.56-.76.3,0-3.11-3.59-8.82-9.31-6.41-6.42-9.2-9-10-9.25a1.69,1.69,0,0,1-1-1c-.13-.4-.38-.73-.57-.73a3.61,3.61,0,0,1-1.27-.94,4.16,4.16,0,0,0-1.18-.93c-.38,0-2.18-1.5-1.81-1.51.18,0-.47-.51-1.45-1.13A5.62,5.62,0,0,1,614.1,350c0-.18-.29-.44-.65-.57-1.23-.44-2.34-1.23-2.1-1.48s0-.24-.34-.24a.84.84,0,0,1-.72-.29,20.51,20.51,0,0,0-3.94-2.72,2.22,2.22,0,0,1-.83-.69,3.82,3.82,0,0,0-1.46-1c-.46-.14-.84-.42-.84-.61s-.25-.35-.56-.35-.57-.15-.57-.32-.62-.64-1.39-1a13.48,13.48,0,0,1-2.11-1.34,4.52,4.52,0,0,0-1.67-.87,3.58,3.58,0,0,1-1.56-.92,3.91,3.91,0,0,0-1.52-1,3.52,3.52,0,0,1-1.13-.52,19.93,19.93,0,0,0-3.85-2.18c-.36-.11-.65-.36-.65-.54s-.21-.33-.47-.33a19.54,19.54,0,0,1-4.83-2.37c-.13-.18-.29-.3-.38-.27a6.54,6.54,0,0,1-2.39-.83c-2.12-1.17-2.7-1.4-3.5-1.41-.48,0-.76-.17-.63-.37s0-.38-.26-.38a9.76,9.76,0,0,1-2.34-.94,8.7,8.7,0,0,0-2.53-.94c-.38,0-.69-.17-.69-.37s-.32-.38-.71-.38a4.91,4.91,0,0,1-1.78-.56,4.88,4.88,0,0,0-1.73-.56c-.36,0-.66-.17-.66-.38s-.41-.37-.91-.37a1.59,1.59,0,0,1-1.15-.37,4.67,4.67,0,0,0-2.08-.61c-1-.14-1.86-.39-1.86-.57s-.43-.33-.94-.33-.94-.15-.94-.33-.76-.45-1.68-.59a4.23,4.23,0,0,1-1.9-.6,2.19,2.19,0,0,0-1.45-.36,3.16,3.16,0,0,1-1.48-.25c-.45-.45-3-1.23-4.85-1.48a4.65,4.65,0,0,1-2-.57,2.74,2.74,0,0,0-1.6-.32,3.39,3.39,0,0,1-1.77-.37,9.65,9.65,0,0,0-3.09-.62,8.6,8.6,0,0,1-2.92-.57,3.54,3.54,0,0,0-1.87-.32c-.91,0-1.66-.15-1.66-.33s-2.16-.52-4.79-.75-6.3-.58-8.16-.77c-3.18-.31-29.9-.4-36.39-.12"/><path id="path3" class="cls-6" d="M347,390.28a2.06,2.06,0,0,0,0,2.54,24.66,24.66,0,0,1,.95,4.76c.28,2.17.67,4.79.86,5.82.32,1.75,1.07,6.4,1.87,11.63.19,1.24.61,3.94.94,6s.68,4.51.79,5.44a10.91,10.91,0,0,0,.52,2.44c.3.66.65,3.14,1.37,9.76a6,6,0,0,0,.55,2.23,3.65,3.65,0,0,1,.34,1.77,8.46,8.46,0,0,0,.61,2.83c.33.78,1,2.44,1.56,3.67s1.34,3.12,1.83,4.17a16,16,0,0,1,.88,2.16,24.35,24.35,0,0,0,1.15,2.77c.63,1.4,1.58,3.55,2.11,4.79s1.36,3.13,1.85,4.2a15.77,15.77,0,0,1,.89,2.21,15.59,15.59,0,0,0,.9,2.19c.49,1.05,1.35,3,1.91,4.35s1.42,3.29,1.92,4.32a11.74,11.74,0,0,1,.9,2.25,11.9,11.9,0,0,0,.89,2.24c.83,1.76,1.33,2.92,3.85,8.92.54,1.29,1.39,3.15,1.88,4.13a8.52,8.52,0,0,1,.89,2.48c0,.74,2.24,3.54,6.47,8.09a20.18,20.18,0,0,1,2.54,3,20.12,20.12,0,0,0,2.53,3c3.66,3.89,9.2,10.07,15.3,17.06,4.94,5.68,6.31,7.13,6.67,7.13a8.89,8.89,0,0,1,2.18,1.6c1,.88,2.57,2.18,3.52,2.91s2.26,1.77,2.93,2.33c2.79,2.35,5.6,4.68,6.83,5.68a4.53,4.53,0,0,1,1.32,1.39,31.44,31.44,0,0,0,3.94,5.6,1.57,1.57,0,0,1,.57.79c0,1.35,9.52,11.6,10.77,11.6a14.29,14.29,0,0,1,2.55,2.26,13.71,13.71,0,0,0,2.59,2.25,16.5,16.5,0,0,1,2.88,2.34c1.39,1.29,3.52,3.21,4.72,4.27s3.41,3,4.89,4.32c3.83,3.39,8.28,6.71,9,6.71a2.58,2.58,0,0,1,.9.59c.64.58,1,.82,4.53,2.74a29.74,29.74,0,0,1,2.94,1.89,17.53,17.53,0,0,0,2.44,1.54c1,.5,3.92,2.33,6.64,4.18a4.22,4.22,0,0,0,1.38.69,4.05,4.05,0,0,1,1.42.88,10.68,10.68,0,0,0,1.63,1.13c.31.14,1.32.75,2.25,1.36s2.28,1.39,3,1.75a22.64,22.64,0,0,1,4,2.57,16.89,16.89,0,0,0,2.64,1.37c1.95.87,3,1.3,6.35,2.58s4.21,1.62,4.78,1.91a3.17,3.17,0,0,0,1.23.34,3.33,3.33,0,0,1,1.22.33c.36.19,1.41.63,2.34,1s2,.79,2.34,1a3.57,3.57,0,0,0,1.34.33,1.69,1.69,0,0,1,1,.34,27.27,27.27,0,0,0,3.93,1.53,39.43,39.43,0,0,1,3.94,1.47,11,11,0,0,0,1.87.74c1.34.42,2.88,1,5.26,1.94.41.17,1.51.56,2.44.87,2.48.83,6.83,2.45,7.69,2.86.41.2,1.8.69,3.08,1.1s2.88,1,3.56,1.29,2,.81,2.93,1.12,2.68.94,3.88,1.39a6,6,0,0,0,3.19.56c.55-.14,2-.4,3.25-.59l4.7-.72c1.34-.21,4.29-.61,6.56-.88a42,42,0,0,0,4.7-.73,13.2,13.2,0,0,1,2.43-.43c5.07-.54,10.2-1.23,10.7-1.44a12.67,12.67,0,0,1,2.44-.43c9-.91,8.59-.72,10.28-4.43,3.82-8.39,4.11-8.88,5.57-9.69.78-.43,2.35-1.36,3.48-2.07s2.57-1.55,3.19-1.87,1.89-1.08,2.82-1.69c1.57-1,3.8-2.34,6.44-3.81a11.49,11.49,0,0,0,1.77-1.22,2.62,2.62,0,0,1,1-.61,20,20,0,0,0,3-1.69c1.45-.92,2.88-1.78,3.19-1.92a11.89,11.89,0,0,0,1.69-1,22.48,22.48,0,0,1,2.44-1.46c.73-.36,2.08-1.14,3-1.74s2.4-1.46,3.28-1.92a5.54,5.54,0,0,0,1.6-1.06c0-.12.54-.46,1.21-.75a17.89,17.89,0,0,0,2.35-1.29l2.07-1.38c.52-.34,2-1.18,3.29-1.85,2-1.06,3.84-2.74,3.84-3.58,0-.15.93-2.13,2.06-4.41a33,33,0,0,0,2.06-4.65c0-.28.17-.51.38-.51s.38-.24.38-.55a5.64,5.64,0,0,1,.72-1.84c.4-.71.64-1.37.54-1.47s0-.5.16-.88c1.43-2.79,1.87-3.89,1.56-3.89a.33.33,0,0,0-.36.28c0,.16-.38.47-.84.7-1.9.94-5.5,2.91-7.79,4.28-1.34.8-3.37,2-4.5,2.61l-4.32,2.45c-1.24.7-3.18,1.8-4.32,2.43-4.33,2.44-6.3,3.59-6.8,4a15.19,15.19,0,0,1-2.27,1.21,7.61,7.61,0,0,0-2,1.17,9.16,9.16,0,0,1-2.18,1.33c-1.08.54-3.06,1.64-4.41,2.46s-3.11,1.83-3.94,2.26-2.26,1.27-3.19,1.87-2.28,1.45-3,1.88l-3.38,2.06c-1.13.71-2.32,1.4-2.63,1.55a2.6,2.6,0,0,0-.75.52,8.78,8.78,0,0,1-1.69,1.08c-.82.44-2.26,1.3-3.19,1.91s-2.36,1.45-3.19,1.88-2.26,1.27-3.19,1.88c-4.32,2.81-8,3.86-9.21,2.65a11.21,11.21,0,0,0-3.36-.55c-1.65-.11-6-.46-9.76-.79s-8-.68-9.57-.78a17,17,0,0,1-3.56-.51,46.79,46.79,0,0,0-6.39-.76c-3.09-.23-7-.58-8.63-.79-6.59-.81-9.25-1.11-14.82-1.66-3.2-.32-7.09-.75-8.64-.94s-4.8-.53-7.22-.75c-5-.45-6-.86-13.34-5.9a32.23,32.23,0,0,0-3.27-2c-.82-.42-2.26-1.27-3.19-1.88s-2-1.3-2.44-1.51-1.51-.89-2.44-1.5-2.36-1.47-3.19-1.92a27,27,0,0,1-2.81-1.81,19,19,0,0,0-2.44-1.53A19.17,19.17,0,0,1,491,583a36.94,36.94,0,0,0-3.57-2.21c-1.94-1.07-5.05-3-8.44-5.27a13.59,13.59,0,0,0-1.51-.89c-.3-.15-1.32-.76-2.25-1.37s-2.36-1.48-3.19-1.92a27,27,0,0,1-2.81-1.81,21,21,0,0,0-2.63-1.64c-.72-.36-2.07-1.16-3-1.77a27.3,27.3,0,0,0-2.44-1.45,31.76,31.76,0,0,1-2.82-1.74c-1.13-.76-2.65-1.72-3.37-2.12s-2.08-1.21-3-1.81-2.28-1.39-3-1.75a9.73,9.73,0,0,1-1.5-.87,27.91,27.91,0,0,0-4.18-2.66,4.81,4.81,0,0,1-1.87-2.37,13.72,13.72,0,0,0-1.36-2.43,37.48,37.48,0,0,1-2.39-4.31c-1.06-2.1-2.82-5.43-3.91-7.39s-2.51-4.51-3.13-5.68a12.73,12.73,0,0,0-2.75-3.37c-.88-.7-1.86-1.48-2.17-1.74-2.43-2-3.34-2.72-3.58-2.72a7.61,7.61,0,0,1-1.71-1.22c-.79-.67-2.06-1.72-2.84-2.34s-2.11-1.76-3-2.54a8.64,8.64,0,0,0-1.85-1.4c-.29,0-.85-.44-5.08-3.93-2.41-2-2.48-2.1-6.7-10.77-5.73-11.76-21.35-43.55-28.46-57.92-3.16-6.4-5.75-11.77-5.75-11.93s-.82-2-1.82-4.13-2.54-5.44-3.43-7.4-2.43-5.27-3.43-7.35-1.83-3.91-1.83-4.06-1.35-3.18-5.28-11.4a31.38,31.38,0,0,1-1.85-4.31c0-1.13-1.67-3.22-2.16-2.7M682.79,543c0,.31.17.56.37.56s.38-.25.38-.56-.17-.56-.38-.56-.37.25-.37.56"/><path id="path4" class="cls-7" d="M382.66,352.84c-.55.35-3.16,2.54-5.13,4.3a6.24,6.24,0,0,1-2.06,1.41c-.27,0-.4.15-.28.34s-.67,1.07-1.75,2c-2.73,2.28-9.24,8.88-9,9.12s0,.2-.24.2c-.44,0-4.64,4.24-4.89,4.93a18.54,18.54,0,0,1-2.16,2.45,13.58,13.58,0,0,0-2,2.37,9.73,9.73,0,0,1-1.6,2c-2.17,2.33-3.07,3.47-3.21,4a1.89,1.89,0,0,1-.64.89,3,3,0,0,0-.95,3.93c.64,1.27,2,4.21,6.21,13.55,1,2.16,2.58,5.63,3.57,7.69s2.5,5.36,3.37,7.32c4.7,10.53,5.06,11.28,25.51,52.92,5.42,11,11.83,24.11,14.23,29,3.82,7.84,4.54,9.07,5.74,9.84a7.62,7.62,0,0,1,1.63,1.28,7.7,7.7,0,0,0,1.62,1.29,41.23,41.23,0,0,1,3.53,2.7c1.19,1,2.92,2.42,3.86,3.14s2.44,1.91,3.34,2.63,2.1,1.65,2.65,2.06,1.62,1.27,2.38,1.9,1.85,1.43,2.41,1.79a8.85,8.85,0,0,1,2.19,2.8c.64,1.18,2.17,4,3.41,6.27s3.1,5.74,4.13,7.7c3.8,7.23,4.29,8,5.81,8.75a9.17,9.17,0,0,1,1.64,1,11,11,0,0,0,1.68,1.17l2.11,1.3,2.44,1.42c1,.57,2.6,1.54,3.53,2.15s2,1.28,2.44,1.49,1.51.89,2.44,1.5S463,565,464,565.53c1.92,1.09,3.48,2,6.2,3.76,2.19,1.38,4.46,2.78,7.9,4.87,1.36.83,3.26,2.05,4.23,2.73a30.61,30.61,0,0,0,2.69,1.69c1.33.65,4.3,2.44,7,4.2,1.27.83,3.28,2.1,4.46,2.83l4.07,2.49,4.18,2.57,4.17,2.56,4.07,2.51c1.18.72,3.26,2,4.62,2.93,3.47,2.28,4.38,2.7,5.81,2.7a3,3,0,0,1,1.61.35,11.34,11.34,0,0,0,3.36.54c1.65.11,4.36.37,6,.59s5.62.64,8.82,1,7.17.74,8.82.94,5.62.61,8.82.93,7.17.74,8.82.94,6,.61,9.57.94,8.09.75,9.94.94c14.34,1.48,12.73,1.68,19.52-2.45,1.86-1.12,4.14-2.48,5.07-3s2.45-1.45,3.38-2.06,2-1.28,2.44-1.5,1.46-.85,2.33-1.41,3.41-2.1,5.63-3.41,4.48-2.69,5-3,1.85-1.15,2.94-1.75l3.39-1.85c.78-.43,2.26-1.29,3.28-1.92a17.59,17.59,0,0,1,2.69-1.41,3.78,3.78,0,0,0,1.32-.76,14.63,14.63,0,0,1,2.53-1.52,16.36,16.36,0,0,0,2.23-1.28,34.1,34.1,0,0,1,3.56-2.08c4-2.17,4.52-2.45,7.7-4.34,1.34-.79,3.36-2,4.5-2.61s3.08-1.74,4.32-2.46,2.84-1.59,3.56-1.95c1.57-.79,1.87-1.14,1.87-2.26,0-.46.18-.84.38-.84s.38-.31.38-.69a1.67,1.67,0,0,1,.28-1,1,1,0,0,0,.31-.53,9.12,9.12,0,0,1,1-3.28,1.2,1.2,0,0,0,.34-.93c0-.4.16-.73.37-.73s.38-.6.38-1.33a4.88,4.88,0,0,1,.59-2.23,1.67,1.67,0,0,0,.35-1.32c-.14-.22,0-.84.38-1.38s.44-.85.22-.71c-.6.37-.51-.25.3-2.14a3.66,3.66,0,0,0,.42-2.14c-.34-.55-.07-1.89.38-1.89.17,0,.22-.57.11-1.26s0-1.38.21-1.53a1.49,1.49,0,0,0,.41-1.14c0-1.25.39-2.11.83-1.84.21.13.18-.13-.06-.58-.5-.94-.22-2.09.78-3.17.76-.81.94-1.74.33-1.74-.21,0-.37-.59-.37-1.31s.17-1.31.39-1.31.31-.56.17-1.5c-.18-1.22-.11-1.51.37-1.51s.56-.28.38-1.5c-.14-.94-.08-1.5.17-1.5s.39-.58.39-1.29a2.52,2.52,0,0,1,.32-1.49c.76-.46.89-40.94.14-42.63-.36-.82-.42-.85-.46-.19a15.87,15.87,0,0,1-.72,4A37.55,37.55,0,0,0,685,488c-.21,2.17-.55,5-.76,6.38s-.64,4.55-.95,7.13c-.65,5.44-1.15,9.1-1.47,10.7-.12.61-.38,2.73-.58,4.69s-.53,4.66-.75,6-.61,4.38-.87,6.76a40.26,40.26,0,0,1-.72,4.88,14.93,14.93,0,0,0-.43,2.81,42.86,42.86,0,0,1-1,7.07c-.09.08-.85.52-1.67,1s-2.43,1.4-3.57,2.12-2.57,1.55-3.19,1.86-1.84,1-2.71,1.6-3.41,2.11-5.63,3.43c-5,2.94-6.86,4.09-8.66,5.25a76.92,76.92,0,0,1-10.79,5.51c-1.44.54-3.71,1.4-5,1.92s-3.2,1.19-4.13,1.49c-1.7.57-3.33,1.19-7.13,2.75-5,2.07-5.17,2.06-15.58-1.7-7.82-2.82-14-5-18-6.4-2.07-.71-4.09-1.45-4.51-1.65s-2.44-1-4.5-1.66c-4.6-1.58-8.7-3.1-9.25-3.44s-.15-2.35,1.36-5.63l2.3-5c1.3-2.81.93-2.79-2.2.09-1.5,1.37-3.82,3.49-5.16,4.69l-5.7,5.16c-1.8,1.63-4.63,4.14-6.3,5.59s-4.36,3.81-6,5.25c-5.71,5.09-5.68,5.07-7,5.07a8.78,8.78,0,0,1-2.31-.36,32.28,32.28,0,0,0-4.47-.73c-1.85-.19-3.88-.46-4.5-.58l-3-.61c-1-.21-3.23-.54-4.88-.73s-4-.53-5.26-.74-3.94-.64-6-.94-4.77-.72-6-.94c-3.62-.65-6.19-1.07-9.19-1.5-2.47-.36-6.36-2-7.13-3-.11-.13-2.39-1.72-5.07-3.52s-5.81-4-6.94-4.78-2.91-2-3.94-2.63c-4.91-3-6.24-4.28-8.13-8a27.6,27.6,0,0,0-1.45-2.51c-.36-.53-1.31-2.12-2.11-3.54s-2.16-3.79-3-5.26-2.09-3.59-2.72-4.73c-1.16-2.09-1.59-2.82-3.59-6.19-1.34-2.26-1.92-3.27-3.29-5.8a67,67,0,0,0-7-9.93c-.52-.64-1.7-2.17-2.62-3.4s-2-2.59-2.34-3c-1.25-1.44-3.47-4.27-4.41-5.61-.51-.74-1.47-2-2.12-2.75-1.63-1.92-3.81-4.62-5.38-6.66-.73-.93-2.5-3.12-3.94-4.85s-3.31-4-4.13-5.09-2.05-2.54-2.72-3.28a7.77,7.77,0,0,1-1.23-1.56,12.06,12.06,0,0,0-1.59-2c-.88-1-2.19-2.55-2.91-3.5s-2-2.54-2.91-3.52a11.76,11.76,0,0,1-1.59-2.06,3.59,3.59,0,0,0-.85-1.14c-.8-.84-2.94-3.42-6-7.26-1.5-1.88-2.9-3.58-5.33-6.51-.83-1-2.09-2.58-2.82-3.52s-1.75-2.25-2.29-2.92a7.11,7.11,0,0,1-1.26-2.52c-.15-.72-.75-2.83-1.34-4.69s-1.52-4.9-2.07-6.76-1.5-5-2.1-6.94-1.59-5.17-2.2-7.13-1.55-5-2.1-6.76c-1.54-4.91-1.57-8.37-.14-15.95.19-1,.6-3.39.91-5.25s.75-4.39,1-5.63l.76-4.13c.19-1,.59-3.48.89-5.44s.73-4.41,1-5.44c1.12-5.14,1.16-7.3.13-6.65m279,51.82a3.32,3.32,0,0,0,.54,1.76,9,9,0,0,1,.74,1.77,13.67,13.67,0,0,0,.89,2.27c1.09,2.4,2.53,5.78,3.62,8.51.45,1.14,1,2.57,1.31,3.19,1,2.33,3.11,7.22,4.09,9.57,1.11,2.65,1.11,2.64,2.85,6.76,2.1,4.95,3.1,7.3,3.41,8.07,1.41,3.5,2,4.69,2.21,4.69s.46.55.7,1.22c.41,1.21.42,1.21.22.09-.49-2.66-.64-3.19-1-3.19s-.34-.55-.35-1.22a5.42,5.42,0,0,0-.55-2.16,5.33,5.33,0,0,1-.55-2.15c0-.67-.18-1.22-.39-1.22s-.37-.43-.37-.94-.15-.94-.34-.94-.44-.55-.57-1.22c-.52-2.63-1-4-1.34-4s-.49-.74-1-2.82c-.27-1.22-.67-2.06-1-2.06s-.31-.13-.28-.28c.14-.93-.1-2-.42-1.79s-.38,0-.38-.37a3.66,3.66,0,0,0-.45-1.43,5.77,5.77,0,0,1-.57-1.57,1.21,1.21,0,0,0-.49-.88c-.2-.07-.37-.44-.37-.82a1.21,1.21,0,0,0-.38-.94.42.42,0,0,1-.16-.58c.12-.19.08-.35-.09-.35-.34,0-1.84-3.4-1.7-3.85,0-.15-.09-.28-.29-.28s-.38-.34-.38-.75-.17-.75-.37-.75-.38-.27-.38-.6a3.8,3.8,0,0,0-.69-1.59c-.38-.55-1.26-2.1-2-3.44a23.09,23.09,0,0,0-1.51-2.63,2.76,2.76,0,0,1-.5-1c-.15-.46-.43-.84-.62-.84s-.35-.34-.35-.75c0-.76-.54-1-.9-.43"/><path id="path5" class="cls-8" d="M343.87,394.79c0,.32-.16.48-.36.36s-.47.38-.6,1.11a5.91,5.91,0,0,1-1.32,2.47,6.22,6.22,0,0,0-1.08,1.4,2.77,2.77,0,0,1-.58.93,2.34,2.34,0,0,0-.57,1.05c0,.22-.19.27-.43.13s-.33-.11-.17.15a1.3,1.3,0,0,1-.09,1.09c-1.14,2.25-1.7,9.65-.84,11.28s1.12,8.79.53,12.66c-.8,5.29-1,8.42-.59,9.34,1.94,4.32,3.13,7.07,3.66,8.48.35.93.79,2,1,2.35a5.22,5.22,0,0,1,.33,1.89,3.16,3.16,0,0,0,.34,1.6,6,6,0,0,1,.55,2.23c.77,7.08,1.06,9.09,1.38,9.66a5.77,5.77,0,0,1,.36,2.17,6,6,0,0,0,.34,2.16,23.36,23.36,0,0,1,.75,4.22c.22,2,.57,4.49.77,5.62s.61,3.84.91,6,.75,4.62,1,5.44.66,2.6.94,3.94c.56,2.67,1,4.64,1.66,6.94.42,1.54,1.41,6.2,1.77,8.32.15.89,1.23,2.16,4.49,5.25,2.35,2.24,8.13,7.83,12.82,12.42s8.68,8.35,8.85,8.35c.41,0,25,24.13,25,24.53,0,.17-.89.21-2,.07s-4.25-.39-7-.58-5.91-.44-6.94-.57c-3.7-.46-3.91.12-.91,2.46,1.45,1.13,3.2,2.52,3.89,3.09a6.41,6.41,0,0,0,1.5,1c.21,0,1.74,1.17,6.08,4.68a5.68,5.68,0,0,0,1.45,1,5.74,5.74,0,0,1,1.49,1c.66.57,2.18,1.71,3.38,2.53s2.72,2,3.39,2.54a6.29,6.29,0,0,0,1.47,1,3.79,3.79,0,0,1,1.14.84,24,24,0,0,0,2.27,1.79c.76.51,1.93,1.4,2.61,2a6.18,6.18,0,0,0,1.51,1,12.89,12.89,0,0,1,2.2,1.61c1.06.88,2.69,2.11,3.62,2.72,1.52,1,4,2.91,7.37,5.6a5.91,5.91,0,0,0,1.43,1c.21,0,1.74,1.18,6.08,4.68a5.06,5.06,0,0,0,1.53,1,3.18,3.18,0,0,1,1.23.94,3.1,3.1,0,0,0,1.28.94,2.62,2.62,0,0,1,1.15.74,20.59,20.59,0,0,0,3.76,3,5.37,5.37,0,0,1,1.46,1c2.16,1.76,6.19,4.85,7.55,5.8s5.39,4,7.56,5.8a6.52,6.52,0,0,0,1.39,1,23.46,23.46,0,0,1,2.72,1.78c4.75,3.38,5.44,3.85,5.69,3.85a4.37,4.37,0,0,1,1.2.89,27.72,27.72,0,0,0,5.22,3.62,2.46,2.46,0,0,1,1,.75,19.54,19.54,0,0,0,2.59,2.06c1.05.71,2.84,2,4,2.79,3.19,2.32,7.55,5.28,7.78,5.28a2.39,2.39,0,0,1,.81.69c.91,1,2.49,1.76,7.61,3.44,2.55.85,5,1.68,5.39,1.86a26,26,0,0,0,5.34,1.51,1.87,1.87,0,0,1,1.05.32,14.59,14.59,0,0,0,2.8,1,20.84,20.84,0,0,1,2.82.94,18.13,18.13,0,0,0,2.62.9c1.24.36,2.59.8,3,1s2.18.77,3.94,1.33,3.52,1.15,3.94,1.31,1.68.59,2.81,1,2.4.78,2.82,1,1.76.59,3,.93,5.29,1.63,9,2.86c5.79,1.92,7,2.21,8.63,2,4.65-.51,14.15-1.41,16.71-1.58a18,18,0,0,0,3.38-.44c.49-.22,6.21-.78,14.64-1.43a12.78,12.78,0,0,0,3.27-.61,6.62,6.62,0,0,1,2.83-.2c2,.21,2.85,0,4.19-1.29a4.49,4.49,0,0,1,1.41-.9c.38-.12.68-.37.68-.56a.38.38,0,0,1,.41-.35,1.87,1.87,0,0,0,.92-.47,45.27,45.27,0,0,1,3.74-2.89c1.24-.91,2.34-1.76,2.44-1.88s.86-.71,1.69-1.33a60.23,60.23,0,0,0,5.08-4.23c1-.88,2.26-2,2.85-2.43,2.49-1.94,17.29-17.11,16.09-16.51l-19.78,9.83-19,9.45-3.49-.22c-4.75-.31-17.65-.84-31.45-1.29-12.45-.41-13.75-.5-15.86-1.13-2.89-.86-4.28-1.23-6.47-1.72-1.24-.28-2.93-.71-3.76-1a36.17,36.17,0,0,0-3.75-.78,20,20,0,0,1-2.81-.58,48.38,48.38,0,0,0-5.45-1.44c-1.24-.28-3.6-.87-5.25-1.32s-4.1-1-5.44-1.32-3.12-.68-3.94-.9-2.6-.63-4-.94c-2.21-.5-3.1-.73-6-1.57-1-.28-2.55-1.57-7.88-6.51-3-2.76-4.59-4.2-13.41-12.12-1.9-1.71-4.3-3.89-5.33-4.85a24.2,24.2,0,0,0-2.17-1.88c-1.09-.46-9.34-5-9.49-5.21a21,21,0,0,0-2.82-1.65c-1.44-.76-3.81-2.06-5.25-2.9s-3.64-2.08-4.88-2.76-3.44-1.92-4.88-2.75-3.9-2.2-5.44-3-3.83-2.11-5.07-2.84-3.56-2-5.16-2.82c-2.28-1.17-3-1.71-3.16-2.52a26.42,26.42,0,0,0-1.17-3.1c-.5-1.13-1.23-3-1.6-4.13-.63-1.87-1.73-4.76-3.8-9.94-.41-1-.86-2.24-1-2.69-.23-.75-10.53-8-11.36-8a.33.33,0,0,1-.34-.31c0-.18-.46-.53-1-.78a27.13,27.13,0,0,1-4.22-2.67c-.11-.11-1.37-1-2.82-1.87-3.9-2.5-5.32-3.71-6.75-5.77-.42-.6-1.35-1.81-2.07-2.7s-1.85-2.34-2.51-3.23-1.46-2-1.78-2.37c-1.11-1.43-2.66-3.54-3.59-4.91a32.47,32.47,0,0,0-2.17-2.74,51.36,51.36,0,0,1-4.21-5.51c-.52-.75-1.87-2.49-3-3.86a58.12,58.12,0,0,1-4.76-6.44,21.47,21.47,0,0,0-1.68-2.26,9,9,0,0,1-1.05-2,11.4,11.4,0,0,0-1.24-2.23,10.16,10.16,0,0,1-1.12-1.8c-.37-.73-1.16-2.08-1.76-3A133.32,133.32,0,0,1,356,476.21c-.51-1.24-1.39-3.27-2-4.51-1.72-3.77-3.65-8.13-4.64-10.51-.52-1.23-1.8-4.14-2.86-6.46s-2.42-5.52-3-7.13c-1.46-3.76-1.47-3.78-3.41-8-1.8-3.89-2-5.6-1.11-9.75.24-1.14.68-3.84,1-6s.7-4.87.91-6,.63-3.76,1-5.82.75-4.68,1-5.82.56-3,.78-4.13.45-2.9.53-3.94a25.11,25.11,0,0,1,.39-2.9c.16-.66.09-1-.17-1s-.42.27-.42.59M661,597.22c-.47.88-.49,1.26,0,1s.84-1.72.58-1.72c-.08,0-.31.33-.53.73"/><path id="path6" class="cls-9" d="M345.76,392.23a2.63,2.63,0,0,0,.53,1,13.39,13.39,0,0,1,.78,4.31,18.87,18.87,0,0,0,.56,4,6.88,6.88,0,0,1,.5,2.07c.24,1.93.83,5.37,1.17,6.75.12.52.38,2.29.58,3.94s.53,4,.75,5.26.62,3.77.88,5.63a37.22,37.22,0,0,0,.7,3.94c.24.59.44,2,1.17,7.94a18.15,18.15,0,0,0,.72,3.91,4,4,0,0,1,.28,1.76,8.12,8.12,0,0,0,.51,2.66c1.4,3.25,3.38,7.73,4,9.1a9.55,9.55,0,0,1,.72,1.84,9.75,9.75,0,0,0,.74,1.83c.4.85,1.76,4,3,7s2.61,6.09,3,6.88a7.33,7.33,0,0,1,.74,1.84c0,.37.73,2,2.85,6.48a10.3,10.3,0,0,1,.9,2.37,8.13,8.13,0,0,0,.94,2.16,9.25,9.25,0,0,1,.94,2,15.54,15.54,0,0,0,1,2.52c.53,1.19,1.4,3.18,1.93,4.42s1.35,3.09,1.84,4.13a10.75,10.75,0,0,1,.89,2.34c0,1,2.1,3.75,6.57,8.61a36.71,36.71,0,0,1,2.55,3,36.13,36.13,0,0,0,2.62,2.94c1.28,1.33,3.52,3.79,5,5.45,6.69,7.72,12.11,13.72,15.22,16.86a95.76,95.76,0,0,0,10.89,9.24,37.39,37.39,0,0,1,3.14,2.63,29.63,29.63,0,0,0,2.52,2.15c1.26.94,2.37,2.41,8,10.68a22.78,22.78,0,0,0,3.26,3.94c.63.48,2.29,1.92,3.67,3.21a20.94,20.94,0,0,0,2.78,2.34,13.19,13.19,0,0,1,2.1,1.79c1,1,3.22,3,4.89,4.41l5.75,5c1.49,1.28,3.73,3.27,5,4.4,3.27,3,4.72,4.14,6.2,4.89a8.33,8.33,0,0,1,1.5.9,19.87,19.87,0,0,0,3.61,2.29,6.19,6.19,0,0,1,1.49.94,7.25,7.25,0,0,0,1.45.94,25.31,25.31,0,0,1,2.94,1.74c5.51,3.54,6.89,4.39,13.22,8.13a5.53,5.53,0,0,1,.93.67,8.55,8.55,0,0,0,1.5.91c.73.37,2.75,1.59,4.49,2.72,4.55,2.93,7.84,4.42,16.35,7.42,3.72,1.31,6.52,2.38,7.4,2.84a3.57,3.57,0,0,0,1.34.33,1.76,1.76,0,0,1,1,.34,21.1,21.1,0,0,0,3.55,1.38,31.41,31.41,0,0,1,3.94,1.5,7.6,7.6,0,0,0,2.07.74,12.1,12.1,0,0,1,2.62,1,5.92,5.92,0,0,0,1.79.7,3.07,3.07,0,0,1,1.13.35,20.73,20.73,0,0,0,2.34.91A63.39,63.39,0,0,1,550,631c.33.19,2.19.88,4.13,1.53A24.31,24.31,0,0,1,558,634a1.92,1.92,0,0,0,1.13.37,9.2,9.2,0,0,1,2.65.93c3,1.5,5.46,1.53,13.88.17,1.24-.2,4.11-.59,6.38-.86a42,42,0,0,0,4.7-.73,13.2,13.2,0,0,1,2.43-.43c1-.1,3-.36,4.32-.58s4.3-.61,6.57-.88a44.34,44.34,0,0,0,4.69-.73,12.89,12.89,0,0,1,2.44-.42c4.7-.46,3.84.52,8.7-9.87,1.21-2.59,1.67-3.19,2.94-3.85a38.1,38.1,0,0,0,4.93-2.94,7,7,0,0,1,1.38-.84c.11,0,1.58-.85,3.26-1.88a34.09,34.09,0,0,1,3.27-1.87,7.25,7.25,0,0,0,1.45-.94,7.65,7.65,0,0,1,1.41-.94,29.51,29.51,0,0,0,2.56-1.5c1.31-.83,3.1-1.88,4-2.33s1.6-1,1.6-1.13.18-.3.4-.3a46.89,46.89,0,0,0,6-3.37c1.15-.77,5-3,5.14-3a8.14,8.14,0,0,0,1.39-.93,5,5,0,0,1,1.64-.94,1.62,1.62,0,0,0,.9-.49,16.76,16.76,0,0,1,2.19-1.44l3.12-1.77a3.44,3.44,0,0,1,1.74-.63c.17.11.54-.09.82-.44s.32-.51.08-.37-.5.09-.57-.13c-.13-.38-2.6.87-5.94,3-.93.6-2.28,1.38-3,1.74a6.38,6.38,0,0,0-1.5.92,10.19,10.19,0,0,1-1.69,1.08c-.83.45-2.27,1.3-3.19,1.9s-2.28,1.37-3,1.73a22.48,22.48,0,0,0-2.44,1.46,11.89,11.89,0,0,1-1.69,1c-.31.14-1.74,1-3.19,1.92a20,20,0,0,1-3,1.69,2.62,2.62,0,0,0-1,.61,11.49,11.49,0,0,1-1.77,1.22c-2.64,1.47-4.87,2.79-6.44,3.81-.93.61-2.2,1.37-2.82,1.69s-2,1.16-3.19,1.87-2.7,1.64-3.48,2.07c-1.46.81-1.75,1.3-5.57,9.69-1.69,3.71-1.24,3.52-10.28,4.43a12.67,12.67,0,0,0-2.44.43c-.5.21-5.63.9-10.7,1.44a13.2,13.2,0,0,0-2.43.43,42,42,0,0,1-4.7.73c-2.27.27-5.22.67-6.56.88l-4.7.72c-1.23.19-2.7.45-3.25.59a6,6,0,0,1-3.19-.56c-1.2-.45-2.95-1.07-3.88-1.39s-2.24-.82-2.93-1.12-2.28-.89-3.56-1.29-2.67-.9-3.08-1.1c-.86-.41-5.21-2-7.69-2.86-.93-.31-2-.7-2.44-.87-2.38-.95-3.92-1.52-5.26-1.94a11,11,0,0,1-1.87-.74,39.43,39.43,0,0,0-3.94-1.47,27.27,27.27,0,0,1-3.93-1.53,1.69,1.69,0,0,0-1-.34,3.57,3.57,0,0,1-1.34-.33c-.35-.19-1.41-.63-2.34-1s-2-.79-2.34-1a3.33,3.33,0,0,0-1.22-.33,3.17,3.17,0,0,1-1.23-.34c-.57-.29-1.53-.68-4.78-1.91s-4.4-1.71-6.35-2.58a16.89,16.89,0,0,1-2.64-1.37,22.64,22.64,0,0,0-4-2.57c-.72-.36-2.07-1.15-3-1.75s-1.94-1.22-2.25-1.36a10.68,10.68,0,0,1-1.63-1.13,4.05,4.05,0,0,0-1.42-.88,4.22,4.22,0,0,1-1.38-.69c-2.72-1.85-5.63-3.68-6.64-4.18a17.53,17.53,0,0,1-2.44-1.54,29.74,29.74,0,0,0-2.94-1.89c-3.51-1.92-3.89-2.16-4.53-2.74a2.58,2.58,0,0,0-.9-.59c-.74,0-5.19-3.32-9-6.71-1.48-1.32-3.68-3.26-4.89-4.32s-3.33-3-4.72-4.27a16.5,16.5,0,0,0-2.88-2.34,13.71,13.71,0,0,1-2.59-2.25,14.29,14.29,0,0,0-2.55-2.26c-1.25,0-10.77-10.25-10.77-11.6a1.57,1.57,0,0,0-.57-.79,31.44,31.44,0,0,1-3.94-5.6,4.53,4.53,0,0,0-1.32-1.39c-1.23-1-4-3.33-6.83-5.68-.67-.56-2-1.61-2.93-2.33s-2.54-2-3.52-2.91a8.89,8.89,0,0,0-2.18-1.6c-.36,0-1.73-1.45-6.67-7.13-6.1-7-11.64-13.17-15.3-17.06a20.12,20.12,0,0,1-2.53-3,20.18,20.18,0,0,0-2.54-3c-4.23-4.55-6.47-7.35-6.47-8.09a8.52,8.52,0,0,0-.89-2.48c-.49-1-1.34-2.84-1.88-4.13-2.52-6-3-7.16-3.85-8.92a11.9,11.9,0,0,1-.89-2.24,11.74,11.74,0,0,0-.9-2.25c-.5-1-1.36-3-1.92-4.32s-1.42-3.3-1.91-4.35a15.59,15.59,0,0,1-.9-2.19,15.77,15.77,0,0,0-.89-2.21c-.49-1.07-1.32-3-1.85-4.2s-1.48-3.39-2.11-4.79a24.35,24.35,0,0,1-1.15-2.77,16,16,0,0,0-.88-2.16c-.49-1.05-1.31-2.93-1.83-4.17s-1.23-2.89-1.56-3.67a8.46,8.46,0,0,1-.61-2.83,3.65,3.65,0,0,0-.34-1.77,6,6,0,0,1-.55-2.23c-.72-6.62-1.07-9.1-1.37-9.76a10.91,10.91,0,0,1-.52-2.44c-.11-.93-.46-3.38-.79-5.44s-.75-4.77-.94-6c-.8-5.23-1.55-9.88-1.87-11.63-.19-1-.58-3.65-.86-5.82-.5-3.86-1.06-5.63-1.78-5.63-.2,0-.36.13-.35.28"/><path id="path7" class="cls-10" d="M347.83,389.21a4,4,0,0,0,.48,2.16c.4.83,1.57,3.38,2.61,5.65s2.66,5.76,3.61,7.76,1.72,3.76,1.72,3.91.82,2,1.83,4.06,2.55,5.39,3.43,7.35,2.43,5.29,3.43,7.4,1.82,4,1.82,4.13,2.59,5.53,5.75,11.93c7.11,14.37,22.73,46.16,28.46,57.92,4.22,8.67,4.29,8.77,6.7,10.77,4.23,3.49,4.79,3.93,5.08,3.93a8.64,8.64,0,0,1,1.85,1.4c.86.78,2.19,1.92,3,2.54s2.05,1.67,2.84,2.34a7.61,7.61,0,0,0,1.71,1.22c.24,0,1.15.69,3.58,2.72.31.26,1.29,1,2.17,1.74a12.73,12.73,0,0,1,2.75,3.37c.62,1.17,2,3.72,3.13,5.68s2.85,5.29,3.91,7.39a37.48,37.48,0,0,0,2.39,4.31,13.72,13.72,0,0,1,1.36,2.43,4.81,4.81,0,0,0,1.87,2.37,27.91,27.91,0,0,1,4.18,2.66,9.73,9.73,0,0,0,1.5.87c.72.36,2.07,1.14,3,1.75s2.28,1.42,3,1.81,2.24,1.36,3.37,2.12a31.76,31.76,0,0,0,2.82,1.74,27.3,27.3,0,0,1,2.44,1.45c.93.61,2.28,1.41,3,1.77a21,21,0,0,1,2.63,1.64,27,27,0,0,0,2.81,1.81c.83.44,2.26,1.31,3.19,1.92s1.95,1.22,2.25,1.37a13.59,13.59,0,0,1,1.51.89c3.39,2.27,6.5,4.2,8.44,5.27A36.94,36.94,0,0,1,491,583a19.17,19.17,0,0,0,2.44,1.51,19,19,0,0,1,2.44,1.53,27,27,0,0,0,2.81,1.81c.83.45,2.26,1.31,3.19,1.92s2,1.28,2.44,1.5,1.51.89,2.44,1.51,2.37,1.46,3.19,1.88a32.23,32.23,0,0,1,3.27,2c7.38,5,8.32,5.45,13.34,5.9,2.42.22,5.68.55,7.22.75s5.44.62,8.64.94c5.57.55,8.23.85,14.82,1.66,1.65.21,5.54.56,8.63.79a46.79,46.79,0,0,1,6.39.76,17,17,0,0,0,3.56.51c1.55.1,5.86.45,9.57.78s8.11.68,9.76.79a11.21,11.21,0,0,1,3.36.55c1.24,1.21,4.89.16,9.21-2.65.93-.61,2.37-1.45,3.19-1.88s2.27-1.28,3.19-1.88,2.37-1.47,3.19-1.91a8.78,8.78,0,0,0,1.69-1.08,2.6,2.6,0,0,1,.75-.52c.31-.15,1.5-.84,2.63-1.55l3.38-2.06c.72-.43,2.07-1.28,3-1.88s2.37-1.44,3.19-1.87,2.6-1.45,3.94-2.26,3.33-1.92,4.41-2.46a9.16,9.16,0,0,0,2.18-1.33,7.61,7.61,0,0,1,2-1.17,15.19,15.19,0,0,0,2.27-1.21c.5-.39,2.47-1.54,6.8-4,1.14-.63,3.08-1.73,4.32-2.43l4.32-2.45c1.13-.63,3.16-1.81,4.5-2.61s3.37-1.94,4.5-2.54a23.54,23.54,0,0,0,4.43-2.62c1-.9-.44-.53-2.19.57-.92.58-2.26,1.35-3,1.72s-2.41,1.32-3.75,2.12-3.37,2-4.5,2.61-2.66,1.51-3.38,1.94-2.75,1.56-4.51,2.51a31.38,31.38,0,0,0-3.37,2,16.36,16.36,0,0,1-2.23,1.28,14.63,14.63,0,0,0-2.53,1.52,3.78,3.78,0,0,1-1.32.76,17.59,17.59,0,0,0-2.69,1.41c-1,.63-2.5,1.49-3.28,1.92l-3.39,1.85c-1.09.6-2.41,1.38-2.94,1.75s-2.77,1.74-5,3-4.75,2.84-5.63,3.41-1.92,1.2-2.33,1.41-1.51.89-2.44,1.5-2.45,1.53-3.38,2.06-3.21,1.88-5.07,3c-6.79,4.13-5.18,3.93-19.52,2.45-1.85-.19-6.33-.62-9.94-.94s-7.92-.75-9.57-.94-5.62-.61-8.82-.94-7.17-.74-8.82-.93-5.62-.62-8.82-.94-7.17-.75-8.82-1-4.36-.48-6-.59a11.34,11.34,0,0,1-3.36-.54,3,3,0,0,0-1.61-.35c-1.43,0-2.34-.42-5.81-2.7-1.36-.89-3.44-2.21-4.62-2.93l-4.07-2.51-4.17-2.56-4.18-2.57-4.07-2.49c-1.18-.73-3.19-2-4.46-2.83-2.7-1.76-5.67-3.55-7-4.2a30.61,30.61,0,0,1-2.69-1.69c-1-.68-2.87-1.9-4.23-2.73-3.44-2.09-5.71-3.49-7.9-4.87-2.72-1.72-4.28-2.67-6.2-3.76-.93-.53-2.45-1.46-3.37-2.07s-2-1.28-2.44-1.5-1.52-.89-2.44-1.49-2.52-1.58-3.53-2.15l-2.44-1.42-2.11-1.3a11,11,0,0,1-1.68-1.17,9.17,9.17,0,0,0-1.64-1c-1.52-.78-2-1.52-5.81-8.75-1-2-2.89-5.42-4.13-7.7s-2.77-5.09-3.41-6.27a8.85,8.85,0,0,0-2.19-2.8c-.56-.36-1.65-1.16-2.41-1.79s-1.83-1.48-2.38-1.9-1.74-1.34-2.65-2.06-2.41-1.9-3.34-2.63-2.67-2.13-3.86-3.14a41.23,41.23,0,0,0-3.53-2.7,7.7,7.7,0,0,1-1.62-1.29,7.62,7.62,0,0,0-1.63-1.28c-1.2-.77-1.92-2-5.74-9.84-2.4-4.92-8.81-18-14.23-29-20.45-41.64-20.81-42.39-25.51-52.92-.87-2-2.39-5.26-3.37-7.32s-2.59-5.53-3.57-7.69c-2.81-6.22-5.48-12.09-6.15-13.49a4.08,4.08,0,0,1-.49-1.78c.15-.71-.18-.61-.47.14M685.89,525.36c.19,1.41.65,1.6.65.26,0-.65-.17-1.19-.39-1.19s-.33.42-.26.93m-.71,3.11c.1.56.19,1.16.21,1.31.1.94.78.05.78-1,0-.93-.17-1.32-.58-1.32s-.53.29-.41,1m-.51,3.28c0,.72.16,1.31.37,1.31s.38-.59.38-1.31-.17-1.31-.38-1.31-.37.59-.37,1.31m-.81,4.22c-.26,2.88-.75,5.34-1.11,5.56a2,2,0,0,0,0,2.21c.19.11.26-.13.15-.54s0-.75.22-.75.42-.58.42-1.29a2.42,2.42,0,0,1,.35-1.51,1,1,0,0,0,.31-.87,11.44,11.44,0,0,1,.23-2.06c.17-.9.13-1.4-.12-1.4s-.42.29-.45.65M681.94,545a1.77,1.77,0,0,0,.09,1.16c.25.4.74-.63.75-1.59,0-.59-.66-.24-.84.43m-.45,3.62a4.15,4.15,0,0,0-.44,1.94c.12.12.29,0,.38-.3l.58-1.81c.61-1.92.23-1.79-.52.17"/><path id="path8" class="cls-11" d="M383.36,352.07c-.33.12-.37.32-.13.61s.09,3.18-.7,6.81c-.23,1-.65,3.48-.95,5.44-.52,3.39-.92,5.73-1.72,9.95-.2,1-.61,3.39-.92,5.25s-.72,4.22-.91,5.25c-1.43,7.58-1.4,11,.14,15.95.55,1.76,1.5,4.8,2.1,6.76s1.59,5.17,2.2,7.13,1.55,5.09,2.1,6.94,1.48,4.9,2.07,6.76,1.19,4,1.34,4.69a7.11,7.11,0,0,0,1.26,2.52c.54.67,1.57,2,2.29,2.92s2,2.52,2.82,3.52c2.43,2.93,3.83,4.63,5.33,6.51,3.08,3.84,5.22,6.42,6,7.26a3.59,3.59,0,0,1,.85,1.14,11.76,11.76,0,0,0,1.59,2.06c.88,1,2.19,2.57,2.91,3.52s2,2.53,2.91,3.5a12.06,12.06,0,0,1,1.59,2,7.77,7.77,0,0,0,1.23,1.56c.67.74,1.89,2.21,2.72,3.28s2.68,3.36,4.13,5.09,3.21,3.92,3.94,4.85c1.57,2,3.75,4.74,5.38,6.66.65.77,1.61,2,2.12,2.75.94,1.34,3.16,4.17,4.41,5.61.36.42,1.42,1.77,2.34,3s2.1,2.76,2.62,3.4a67,67,0,0,1,7,9.93c1.37,2.53,1.95,3.54,3.29,5.8,2,3.37,2.43,4.1,3.59,6.19.63,1.14,1.86,3.27,2.72,4.73s2.23,3.84,3,5.26,1.75,3,2.11,3.54a27.6,27.6,0,0,1,1.45,2.51c1.89,3.69,3.22,5,8.13,8,1,.62,2.8,1.81,3.94,2.63s4.26,3,6.94,4.78,5,3.39,5.07,3.52c.77,1,4.66,2.61,7.13,3,3,.43,5.57.85,9.19,1.5,1.24.22,3.95.65,6,.94s4.77.72,6,.94,3.61.55,5.26.74,3.85.52,4.88.73l3,.61c.62.12,2.65.39,4.5.58a32.28,32.28,0,0,1,4.47.73,8.78,8.78,0,0,0,2.31.36c1.28,0,1.25,0,7-5.07,1.62-1.44,4.32-3.81,6-5.25s4.5-4,6.3-5.59l5.7-5.16c1.34-1.2,3.66-3.32,5.16-4.69,3.13-2.88,3.5-2.9,2.2-.09l-2.3,5c-1.51,3.28-2,5.24-1.36,5.63s4.65,1.86,9.25,3.44c2.06.71,4.09,1.46,4.5,1.66s2.44.94,4.51,1.65c4,1.39,10.19,3.58,18,6.4,10.41,3.76,10.54,3.77,15.58,1.7,3.8-1.56,5.43-2.18,7.13-2.75.93-.3,2.79-1,4.13-1.49s3.61-1.38,5-1.92a76.92,76.92,0,0,0,10.79-5.51c1.8-1.16,3.7-2.31,8.66-5.25,2.22-1.32,4.76-2.87,5.63-3.43s2.09-1.29,2.71-1.6,2-1.15,3.19-1.86,2.74-1.67,3.57-2.12,1.58-.88,1.67-1a42.86,42.86,0,0,0,1-7.07,14.93,14.93,0,0,1,.43-2.81,40.26,40.26,0,0,0,.72-4.88c.26-2.38.66-5.42.87-6.76s.56-4,.75-6,.46-4.08.58-4.69c.32-1.6.82-5.26,1.47-10.7.31-2.58.74-5.79.95-7.13s.57-4.3.79-6.57a41.13,41.13,0,0,1,.89-5.63c.59-1.86.78-5.79.26-5.25a7.28,7.28,0,0,0-.57,2.62c-.46,5-.66,6.42-1,7.13s-.75,4.7-1.36,11.64a13.89,13.89,0,0,1-.44,2.81c-.21.5-.67,4.13-1.42,11.26a12.8,12.8,0,0,1-.56,2.82,13.5,13.5,0,0,0-.52,3c-.1,1.24-.46,4.36-.78,6.94s-.68,5.54-.79,6.57a11.89,11.89,0,0,1-.52,2.63,27.14,27.14,0,0,0-.58,4.72c-.3,5,0,4.55-5.43,7.64-.93.53-2.36,1.37-3.19,1.89s-2.18,1.29-3,1.74a8.3,8.3,0,0,0-1.69,1.08,8.62,8.62,0,0,1-1.69,1.08,40.7,40.7,0,0,0-4.12,2.49c-.62.41-1.72,1.05-2.44,1.41s-2.08,1.15-3,1.76a69.08,69.08,0,0,1-12.39,6.54c-.93.31-2.87,1-4.31,1.57s-3.56,1.33-4.7,1.73-2.74,1-3.56,1.32l-2.25.87-2.25.87c-4.15,1.62-5,1.56-10.14-.68-.62-.27-2-.78-3.19-1.14s-2.4-.78-2.81-.93c-2.45-.91-4.21-1.62-4.78-1.91a3.55,3.55,0,0,0-1.39-.34,1.26,1.26,0,0,1-.94-.33,3.48,3.48,0,0,0-1.62-.6,11,11,0,0,1-2.72-1,41,41,0,0,0-5-1.83c-2-.63-3.89-1.27-4.13-1.42-.4-.26-5.49-2.08-10.4-3.73-3.33-1.12-3.49-1.84-1.36-6.33,3-6.37,3.61-7.74,3.61-8.25,0-.95-1.5-.08-4.12,2.37-1.34,1.27-3.88,3.57-5.64,5.11-6.75,6-9.75,8.65-15.07,13.54-3,2.78-5.63,5.06-5.77,5.06a8.18,8.18,0,0,0-1.76,1.35c-1.28,1.15-1.68,1.31-2.68,1.1-.65-.13-1.85-.33-2.68-.43a11.11,11.11,0,0,1-2.25-.5,31.86,31.86,0,0,0-4.5-.75c-6.27-.73-6.73-.8-7.51-1.15a11.53,11.53,0,0,0-2.63-.53c-2.35-.24-9-1.19-12-1.72-1.24-.22-3.94-.65-6-.94-7-1-10-1.62-11.12-2.26s-4.65-3-4.83-3.17a15,15,0,0,0-2.9-1.91,18,18,0,0,1-2.55-1.69c-1.23-.91-4.87-3.42-8.07-5.58-6-4-6.66-4.67-8.42-7.92-.55-1-1.66-3-2.45-4.3s-1.75-3-2.11-3.75a17.7,17.7,0,0,0-1.36-2.23A18.11,18.11,0,0,1,461,529.9c-.41-.84-1.41-2.62-2.22-4-3.48-5.78-4.8-8.08-6.72-11.69a25.23,25.23,0,0,0-1.5-2.57,12.45,12.45,0,0,1-1.93-2.87,5.37,5.37,0,0,0-1.17-1.49,13,13,0,0,1-1.59-1.95c-.23-.4-1.31-1.81-2.39-3.12s-2.51-3.11-3.19-4-2.2-2.76-3.38-4.18a17.06,17.06,0,0,1-2.16-2.93,5.61,5.61,0,0,0-1.32-1.61,5.4,5.4,0,0,1-1.31-1.63,7.26,7.26,0,0,0-1.41-1.9c-.77-.85-1.91-2.19-2.53-3-2.29-2.92-3.95-5-5.44-6.81s-5.38-6.6-8.25-10.14c-.83-1-2.78-3.34-4.33-5.14a27.31,27.31,0,0,1-2.81-3.58,5.62,5.62,0,0,0-1.32-1.6,5.55,5.55,0,0,1-1.31-1.61,24.13,24.13,0,0,0-2.81-3.44,24.18,24.18,0,0,1-2.82-3.45,5.4,5.4,0,0,0-1.31-1.63,5.5,5.5,0,0,1-1.32-1.63,9,9,0,0,0-1.59-2.15c-.88-1-2.05-2.35-2.61-3s-1.49-1.84-2.08-2.56a9.69,9.69,0,0,1-1.52-2.82l-1-3.56a21.63,21.63,0,0,0-.94-2.72,3.37,3.37,0,0,1-.35-1.31,18.27,18.27,0,0,0-.93-3.29,20.11,20.11,0,0,1-.94-3.29,3.49,3.49,0,0,0-.34-1.31c-.36-.69-1.76-5.1-2.83-8.91a21.27,21.27,0,0,0-1-2.91,3.19,3.19,0,0,1-.35-1.26,23.15,23.15,0,0,0-.91-3.48c-2-6.24-2-6.26-1-11.87.22-1.24.66-3.77,1-5.63s.74-4.22.93-5.25c.5-2.71,1.5-9.1,1.73-11.07a12.41,12.41,0,0,1,.42-2.25,33.91,33.91,0,0,0,.74-3.76,73.1,73.1,0,0,1,1.42-7.75c.32-1-.18-2-.85-1.73m275.79,48.58a9.47,9.47,0,0,0,.93,2.49,9.7,9.7,0,0,1,.94,2.4,2.73,2.73,0,0,0,.55,1.26,2.71,2.71,0,0,1,.56,1.19,14.72,14.72,0,0,0,1,2.62c.53,1.19,1.36,3.1,1.84,4.23s1.23,2.87,1.66,3.85a14.71,14.71,0,0,1,.78,2,16.45,16.45,0,0,0,.88,2.17c.49,1.05,1.33,3,1.88,4.26,1.62,3.81,3,7,3.45,8.16,1.78,4.29,3.94,9.43,5,12,1.91,4.44,2.63,6.12,3.07,7.22s1.06,1.65,1.06,1a15.68,15.68,0,0,0-1.52-4.25c-.23,0-.8-1.21-2.2-4.69-.31-.77-1.31-3.12-3.41-8.07-1.74-4.12-1.74-4.11-2.85-6.76-1-2.35-3.07-7.24-4.09-9.57-.27-.62-.86-2.05-1.31-3.19-1.09-2.73-2.53-6.11-3.62-8.51a12.06,12.06,0,0,1-.89-2.36,3.42,3.42,0,0,0-.57-1.27,6,6,0,0,1-.7-2.1,2.46,2.46,0,0,0-.6-1.51c-.25-.16-.43-.39-.42-.52.08-.59,0-.86-.72-1.74-.56-.72-.73-.79-.74-.31"/></g><polygon class="cls-12" points="500 0.69 508.68 18.28 528.08 21.1 514.04 34.78 517.35 54.11 500 44.98 482.65 54.11 485.96 34.78 471.92 21.1 491.32 18.28 500 0.69"/><polygon class="cls-12" points="429.8 0.69 438.48 18.28 457.88 21.1 443.84 34.78 447.15 54.11 429.8 44.98 412.45 54.11 415.76 34.78 401.72 21.1 421.12 18.28 429.8 0.69"/><polygon class="cls-12" points="570.2 0.69 578.88 18.28 598.28 21.1 584.24 34.78 587.55 54.11 570.2 44.98 552.85 54.11 556.16 34.78 542.12 21.1 561.52 18.28 570.2 0.69"/><polygon class="cls-12" points="464.9 70.89 473.58 88.48 492.98 91.3 478.94 104.98 482.25 124.31 464.9 115.18 447.55 124.31 450.86 104.98 436.82 91.3 456.22 88.48 464.9 70.89"/><polygon class="cls-12" points="535.1 70.89 543.78 88.48 563.18 91.3 549.14 104.98 552.45 124.31 535.1 115.18 517.75 124.31 521.06 104.98 507.02 91.3 526.42 88.48 535.1 70.89"/><path class="cls-13" d="M359.6,97.88q-11.94,4.22-23.55,9.1-18.9,8-36.82,17.73t-34.72,21.1q-16.81,11.35-32.43,24.25t-29.91,27.18q-14.29,14.3-27.19,29.91t-24.24,32.43q-11.36,16.8-21.1,34.72T111.9,331.12q-8,18.9-14.16,38.7T87.36,410.19a424.73,424.73,0,0,0,0,169.77q4.22,20.56,10.38,40.36T111.9,659q8,18.9,17.74,36.82t21.1,34.73Q162.1,747.37,175,763t27.19,29.91q14.29,14.29,29.91,27.19t32.43,24.24q16.8,11.35,34.72,21.1"/><rect class="cls-12" x="355.43" y="86.09" width="8.33" height="23.57"/><rect class="cls-12" x="293.25" y="854.45" width="11.95" height="21.96"/><path class="cls-13" d="M366.62,30.22c-1.37.39-3.35,1-5.73,1.7q-23.07,7.19-45.14,16.52t-43,20.7q-20.88,11.34-40.51,24.61T194.45,122q-18.21,15-34.9,31.71t-31.71,34.9q-15,18.19-28.29,37.83T74.93,267q-11.34,20.89-20.69,43T37.72,355.1a484.79,484.79,0,0,0-12.11,47.09,495.16,495.16,0,0,0,0,198.07q4.91,24,12.11,47.09T54.24,692.5q9.33,22,20.69,43T99.55,776q13.24,19.6,28.29,37.83t31.71,34.89q16.68,16.68,34.9,31.72t37.83,28.28q19.6,13.26,40.51,24.62"/><rect class="cls-12" x="363.14" y="18.21" width="6.96" height="24.01"/><rect class="cls-12" x="266.82" y="922.33" width="11.94" height="21.97"/><path class="cls-13" d="M640.4,97.87c8,2.82,15.82,5.83,23.55,9.1q18.9,8,36.82,17.74t34.72,21.1q16.82,11.35,32.43,24.24t29.91,27.19q14.29,14.3,27.19,29.91t24.24,32.42q11.36,16.81,21.1,34.73t17.74,36.82q8,18.9,14.16,38.7t10.38,40.36a424.73,424.73,0,0,1,0,169.77q-4.21,20.56-10.38,40.37T888.1,659q-8,18.88-17.74,36.82t-21.1,34.72Q837.91,747.38,825,763T797.83,792.9q-14.3,14.29-29.91,27.18t-32.43,24.25q-16.8,11.35-34.72,21.1"/><rect class="cls-12" x="636.23" y="86.09" width="8.33" height="23.57"/><rect class="cls-12" x="694.8" y="854.44" width="11.93" height="21.97"/><path class="cls-13" d="M633.38,30.2c1.91.57,3.83,1.12,5.73,1.71q23.07,7.17,45.14,16.52t43,20.69q20.88,11.35,40.51,24.62T805.55,122q18.21,15,34.9,31.72t31.71,34.9q15,18.2,28.29,37.83T925.07,267q11.34,20.89,20.69,43t16.52,45.14a485.73,485.73,0,0,1,12.11,47.1,495.06,495.06,0,0,1,0,198.06,484.79,484.79,0,0,1-12.11,47.09q-7.17,23.08-16.52,45.15t-20.69,43Q913.71,756.32,900.45,776t-28.29,37.83q-15,18.21-31.71,34.9t-34.9,31.71q-18.19,15-37.83,28.29t-40.51,24.61"/><rect class="cls-12" x="629.81" y="18.22" width="7.13" height="23.96"/><rect class="cls-12" x="721.24" y="922.31" width="11.93" height="21.97"/></g></svg>